<?xml version="1.0" encoding="utf-8"?>
<!-- Generator: Adobe Illustrator 23.0.0, SVG Export Plug-In . SVG Version: 6.00 Build 0)  -->
<svg version="1.1" id="Слой_1" xmlns="http://www.w3.org/2000/svg" xmlns:xlink="http://www.w3.org/1999/xlink" x="0px" y="0px"
	 viewBox="0 0 481.3 270.7" style="enable-background:new 0 0 481.3 270.7;" xml:space="preserve">
<style type="text/css">
	.st0{fill:#FFFFFF;}
	.st0:hover{fill: #ecbe02;}
</style>
<g>
	<path class="st0" d="M270.4,215.4c-14.8,0-29.7,0-44.5,0c-13.8,0-23.6-7.4-27.3-20.5c-6.2-21.4-12.3-42.8-18.5-64.3
		c-1.8-6.3-4-8-10.6-7.9c-3.9,0.1-7.4-0.9-10-3.9c-2.8-3.3-3.1-7.1-1.3-10.9c1.8-4,5.2-5.9,9.5-5.9c10.2-0.1,20.4,0,30.7,0
		c5.2,0,10.4,0.1,15.6,0c12.6-0.3,22.4,4.9,29.8,14.9c6.1,8.2,14.3,12.8,24.6,13.2c9.7,0.4,17.9-3.2,24.5-10.3
		c1.6-1.7,3.1-3.6,4.6-5.5c6.6-8,15.1-12.2,25.4-12.3c17.5-0.2,34.9-0.1,52.4,0c6.3,0,10.8,4.4,10.8,10.4c0,5.7-4.6,10.1-10.7,10.4
		c-2,0.1-4.1,0.3-6.1,0.8c-4.5,1.1-7.2,3.6-8.5,8.4c-6,21.5-12.4,42.8-18.7,64.2c-3.4,11.7-13.5,19.3-25.7,19.3
		C300.9,215.4,285.7,215.4,270.4,215.4z"/>
	<path class="st0" d="M268.9,116.5c-5.8-0.3-10.2-3.2-12.8-8.4c-2.9-5.9-2.7-11.9,1.2-17.3c5.1-7,10.6-13.9,16-20.7
		c9.1-11.7,18.4-23.3,27.2-35.2c5.9-8,15.1-8.9,21.4-4.2c7.1,5.3,8.7,15.8,3.2,23.2c-5.7,7.6-11.6,15-17.4,22.5
		c-8.7,11.3-17.5,22.5-26.2,33.8C278.3,114.1,274.3,116.4,268.9,116.5z"/>
	<path class="st0" d="M101.6,149.4c12.8,0,25.7,0,38.5,0c6.4,0,10.9,4.2,10.9,10.2c0,6.2-4.4,10.5-10.9,10.5c-25.7,0-51.4,0-77.1,0
		c-6.5,0-10.9-4.3-10.9-10.5c0-6,4.5-10.2,10.9-10.2C75.9,149.3,88.7,149.4,101.6,149.4z"/>
	<path class="st0" d="M132.4,186.4c8.8,0,17.6,0,26.4,0c6.3,0,10.8,4.3,10.7,10.4c0,6-4.5,10.3-10.8,10.3c-17.5,0-35.1,0-52.6,0
		c-6.3,0-10.8-4.4-10.7-10.4c0-6.1,4.5-10.3,10.8-10.3C115,186.4,123.7,186.4,132.4,186.4z"/>
	<path class="st0" d="M103.9,112.3c8.1,0,16.1,0,24.2,0c6.1,0,10.6,4.3,10.6,10.2c0,6.1-4.4,10.4-10.7,10.4c-16.2,0-32.4,0-48.6,0
		c-6.2,0-10.8-4.5-10.8-10.4c0-5.9,4.6-10.3,10.9-10.3C87.6,112.3,95.7,112.3,103.9,112.3z"/>
</g>
</svg>
