<svg viewBox="0 0 36.886 35.786" id="close-brush" xmlns="http://www.w3.org/2000/svg"><path data-name="Path 9802" d="M36.834 2.084c-1.569 2.933-4.916 5.619-7.158 8.116-1.47 1.637-5.368 4.3-5.064 6.34.186 1.255 3.7 3.686 4.637 4.538 1.325 1.205 3.841 2.767 4.663 4.372 1.627 3.18-1.029 4.278-3.814 3.317-3.884-1.339-5.813-4.542-8.995-6.751-2.057-1.428-.981-1.345-2.944-.121-1.373.856-2.56 2.47-3.742 3.61a119.21 119.21 0 01-9.652 8.827c-1.543 1.19-5.057 2.822-4.746-.578.226-2.477 5.7-6.594 7.3-8.254 1.651-1.715 8.068-6.516 8.15-8.966C15.56 13.853 2.163 3.375 7.133.561c1.92-1.088 6.293 4.768 7.577 6.053.843.843 3.9 4.944 4.993 5.028 1.117.085 1.559-.687 2.509-1.606a97.527 97.527 0 018.491-7.784c1.311-1 6.55-4.431 6.131-.168.002-.004.115-1.166 0 0z"></path></svg>