<?xml version="1.0" encoding="utf-8"?>
<!-- Generator: Adobe Illustrator 23.0.0, SVG Export Plug-In . SVG Version: 6.00 Build 0)  -->
<svg version="1.1" id="Слой_1" xmlns="http://www.w3.org/2000/svg" xmlns:xlink="http://www.w3.org/1999/xlink" x="0px" y="0px"
	 viewBox="0 0 481.3 270.7" style="enable-background:new 0 0 481.3 270.7;" xml:space="preserve">
<style type="text/css">
	.st0{fill:#FFFFFF;}
</style>
<path class="st0" d="M318.3,70.8c-5.6-6.9-12.7-11.7-21.7-14.6c-0.4,1.9-0.7,3.6-1.2,5.3c-1.2,4.1-4.2,5.6-8.3,5.6
	c-4.2,0-4.7-2.8-5.3-5.9c-1.7-9-4.7-17.7-11.3-24.4c-2.9-2.9-6.6-5-10.4-7.8c-2.1,10.9-0.2,21.4-7,31c-3.9-13.9-13.9-19.5-26.4-22.8
	c-0.6,7.1,5.6,14.5-1.8,20.8c-7.3-6.6-13.9-13.4-21.2-19.2c-7.3-5.8-15.5-10.1-25.2-8.7c3.1,3.6,7.2,6.8,8.8,10.8
	c1.3,3.1-0.4,7.4-0.8,11.2c-3.8-0.7-8.1-0.3-11.2-2.2c-3.6-2.2-6.1-6.3-9.1-9.5c-5.9,4.6-6.2,7.5-0.9,15.7
	c-3.4,2.9-7.2,5.6-10.4,8.8c-4.4,4.4-8.9,8.9-12.4,14c-6.8,9.9-4.5,18.9,5.9,25c3.5,2,7.3,3.4,10.3,4.8c0,29.8-0.2,59.2,0.1,88.7
	c0.1,15.5,11.6,29.4,26.9,33.7c1.5,0.4,3,1,4.5,1.5c19.4,0,38.8,0,58.1,0v-52.8h-18.1v-20h18.1c0,0-3.2-29.3,7-35.7
	c0,0,4.8-5.5,13.5-7.1H291v19.4h-15.1c0,0-4.9-0.1-5.6,7.7V159h20.1l-2.6,21.1h-18v52.3c3.4,0,6.8,0,10.2,0c0.7-0.4,1.3-1,2.1-1.2
	c18.3-5,29-18.1,29.1-36.8c0.1-26.5-0.3-53-0.3-79.5c0-1.6,0.9-3.4,1.8-4.7c1.4-2,3.3-3.6,4.9-5.4C329.2,91.6,329.3,84.4,318.3,70.8
	z"/>
</svg>
