<?xml version="1.0" encoding="utf-8"?>
<svg version="1.1" xmlns="http://www.w3.org/2000/svg" xmlns:xlink="http://www.w3.org/1999/xlink" x="0px" y="0px"
	 viewBox="0 0 481.3 270.7" style="enable-background:new 0 0 481.3 270.7;" xml:space="preserve">
<style type="text/css">
	.st0{fill:#FFFFFF;}
</style>
<g>
	<g>
		<path class="st0" d="M253.9,244.1c-29.9,0-59.9,0-89.9,0c-1.5-0.5-3-1.1-4.5-1.5c-15.3-4.3-26.8-18.1-26.9-33.7
			c-0.2-29.5-0.1-58.9-0.1-88.7c-3-1.4-6.8-2.8-10.3-4.8c-10.4-6.1-12.7-15.1-5.9-25c3.5-5.1,8.1-9.5,12.4-14
			c3.2-3.2,6.9-5.9,10.4-8.8c-5.3-8.2-5-11.1,0.9-15.7c3,3.3,5.5,7.3,9.1,9.5c3,1.8,7.4,1.5,11.2,2.2c0.4-3.8,2.1-8.1,0.8-11.2
			c-1.7-4.1-5.7-7.2-8.8-10.8c9.8-1.5,17.9,2.9,25.2,8.7c7.3,5.9,14,12.6,21.2,19.2c7.4-6.2,1.2-13.6,1.8-20.8
			C213,52,223,57.6,226.9,71.5c6.8-9.6,4.9-20.1,7-31c3.9,2.8,7.6,4.9,10.4,7.8c6.7,6.7,9.6,15.3,11.3,24.4c0.6,3.2,1.1,5.9,5.3,5.9
			c4.1,0,7.1-1.4,8.3-5.6c0.5-1.6,0.8-3.3,1.2-5.3c9,2.9,16.1,7.6,21.7,14.6c11,13.7,10.9,20.8-0.7,34.1c-1.6,1.8-3.5,3.4-4.9,5.4
			c-1,1.3-1.8,3.1-1.8,4.7c0,26.5,0.4,53,0.3,79.5c-0.1,18.7-10.8,31.9-29.1,36.8C255.2,243.2,254.5,243.7,253.9,244.1z
			 M208.9,234.4c12.4,0,24.7,0.2,37-0.1c18.4-0.4,29.3-11.6,29.4-29.9c0.1-23.7,0.1-47.4,0-71c-0.1-19.3-11.9-32-31-32.4
			c-23.9-0.5-47.8-0.5-71.6,0c-18.8,0.5-30.5,13.4-30.5,32.2c0,23.5,0,47,0,70.4c0,19.4,10.9,30.5,30.3,30.7
			C184.6,234.5,196.8,234.4,208.9,234.4z"/>
		<path class="st0" d="M247.8,167.6c0,22.1-17.3,39.3-39.3,39.2c-21.8-0.1-39.7-18-39.3-39.5c0.4-21.6,17.8-38.9,39.3-38.9
			C230.6,128.4,247.8,145.5,247.8,167.6z M238.2,167.5c0-16.1-13.2-29.3-29.3-29.4c-16.4,0-30,13.4-29.9,29.6
			c0.1,16,13.4,29.3,29.5,29.4C224.9,197.2,238.3,183.9,238.2,167.5z"/>
	</g>
	<circle class="st0" cx="252.7" cy="125.1" r="6.4"/>
</g>
</svg>
