<svg width="789" height="1130" viewBox="0 0 789 1130" fill="none" xmlns="http://www.w3.org/2000/svg">
<path d="M37.4077 494.909C38.7677 367.24 109.828 262.01 208.427 213.22C244.637 195.37 282.887 185.51 323.177 182.96C386.077 179.05 445.067 192.14 498.786 225.12C571.376 269.66 617.446 334.26 638.356 416.37C656.716 488.279 649.406 558.319 617.956 625.639C545.026 781.359 471.417 936.908 398.317 1092.63C390.497 1109.29 378.767 1121.36 361.087 1126.97C332.527 1136.15 302.437 1123.23 289.007 1096.03C278.637 1074.95 268.947 1053.53 258.917 1032.28C195.847 898.148 132.778 763.849 69.5377 629.889C53.5577 595.889 43.0177 560.529 39.1077 523.129C38.0877 512.929 37.9177 502.559 37.4077 494.909ZM493.347 478.079C494.367 397.16 427.727 327.29 343.237 327.29C259.937 327.29 192.447 394.44 192.447 477.569C192.447 560.869 259.597 628.189 342.727 628.359C427.217 628.529 494.027 558.999 493.347 478.079Z" fill="#959595" fill-opacity="0.34"/>
<path d="M296.317 26.7306C298.357 26.7306 299.717 26.3906 300.907 26.7306C323.857 32.6806 345.277 42.2005 362.957 58.5205C375.707 70.4205 384.037 84.8704 386.757 102.21C386.927 103.23 387.267 104.08 387.947 106.8C390.497 103.06 392.537 100.51 394.067 97.6204C400.527 85.0404 404.437 71.6105 406.137 57.6705C408.007 41.6906 408.687 25.5406 409.877 9.56063C410.047 7.01063 409.877 4.46063 409.877 0.550645C413.957 2.08064 416.847 2.93065 419.567 4.12065C435.036 11.2606 447.277 22.4806 457.307 35.9106C473.116 57.3305 481.446 81.9804 486.546 107.82C487.226 111.73 488.076 115.64 488.416 119.55C488.756 124.31 490.966 126.86 495.726 127.03C500.996 127.37 506.266 128.05 511.536 127.71C523.096 126.69 531.086 119.55 533.126 107.99C534.146 102.55 534.316 97.1104 534.996 90.8204C538.736 92.0104 542.306 92.6904 545.706 94.0504C590.416 112.07 621.016 143.86 637.166 189.08C651.276 228.52 651.956 268.64 641.246 309.1C640.736 311.14 639.886 313.01 638.866 316.07C636.486 312.16 634.616 309.44 632.916 306.55C591.436 240.08 534.486 191.97 460.707 164.77C412.087 146.75 361.937 141.14 310.427 145.9C220.157 154.23 145.697 193.5 86.1974 261.5C80.2475 268.3 74.1275 269.83 66.9875 267.45C47.7776 261.33 29.4176 253.17 14.7976 238.55C0.687663 224.61 -3.05231 207.95 2.38768 189.08C5.78767 177.52 11.9076 167.49 19.2176 157.8C30.6075 142.5 44.2076 129.24 58.8276 116.83C69.7075 107.65 80.9275 98.8104 92.4874 89.4604C83.1375 80.2804 75.6575 70.0805 78.3775 55.9705C79.9075 47.9805 85.8574 39.8205 94.6974 34.0406C96.3974 36.9305 98.2674 39.8205 100.137 42.5405C107.447 53.9305 115.777 64.4705 127.337 71.9505C137.197 78.4104 147.907 81.1304 159.807 78.0705C165.417 76.7105 168.137 73.6505 168.987 67.8705C173.237 41.0106 162.697 20.1006 138.217 7.86063C135.157 6.33064 132.097 4.97063 128.867 2.25064C131.927 1.57064 134.987 0.72066 138.217 0.380661C151.647 -0.979336 164.567 1.40064 176.977 5.99063C194.317 12.2806 209.787 21.8006 224.237 32.8506C241.577 45.9405 257.047 61.0705 271.667 77.0504C275.747 81.4704 279.827 86.0604 283.737 90.6504C289.687 97.6204 294.277 97.6204 300.057 90.3104C305.497 83.5104 306.687 75.1805 305.497 67.0205C303.967 56.1405 301.247 45.4305 298.867 34.5506C298.187 32.6806 297.337 29.9606 296.317 26.7306Z" fill="#959595" fill-opacity="0.34"/>
<path d="M677.626 601.839C697.516 540.639 700.066 478.759 687.826 415.35C721.146 450.2 754.466 484.879 788.296 520.239C751.576 547.949 715.366 575.149 679.156 602.519C678.646 602.349 678.136 602.009 677.626 601.839Z" fill="#959595" fill-opacity="0.34"/>
<path d="M424.364 396.734C416.717 389.087 404.348 389.087 396.701 396.734L343.399 450.036L290.097 396.734C282.45 389.087 270.081 389.087 262.434 396.734C254.788 404.381 254.788 416.75 262.434 424.397L315.736 477.699L262.434 531.001C254.788 538.647 254.788 551.017 262.434 558.664C270.081 566.31 282.45 566.31 290.097 558.664L343.399 505.362L396.701 558.664C404.348 566.31 416.717 566.31 424.364 558.664C432.01 551.017 432.01 538.647 424.364 531.001L371.062 477.699L424.364 424.397C431.786 416.75 431.786 404.381 424.364 396.734Z" fill="#959595" fill-opacity="0.34"/>
</svg>
